REM DIRINDEX 1\3,1\2\4,1\2\5,1\2\6
REM DIRNAME folder01,folder02,folder03,folder04,folder05,folder06
TITLE ""
FILE "063.mp3" MP3
  TRACK 01 AUDIO
    TITLE "4:cjc137_2570"
    INDEX 01 00:00:00
  TRACK 02 AUDIO
    TITLE "0:"
    INDEX 01 00:01:32
  TRACK 03 AUDIO
    TITLE "6:cjc137_2571"
    INDEX 01 00:01:40
  TRACK 04 AUDIO
    TITLE "0:"
    INDEX 01 00:02:55
  TRACK 05 AUDIO
    TITLE "5:cjc137_2572"
    INDEX 01 00:02:59
  TRACK 06 AUDIO
    TITLE "0:"
    INDEX 01 00:04:17
  TRACK 07 AUDIO
    TITLE "4:cjc137_2573"
    INDEX 01 00:05:24
  TRACK 08 AUDIO
    TITLE "0:"
    INDEX 01 00:06:39
  TRACK 09 AUDIO
    TITLE "6:cjc137_2574"
    INDEX 01 00:06:45
  TRACK 10 AUDIO
    TITLE "0:"
    INDEX 01 00:07:52
  TRACK 11 AUDIO
    TITLE "5:cjc137_2575"
    INDEX 01 00:07:58
  TRACK 12 AUDIO
    TITLE "0:"
    INDEX 01 00:08:73
  TRACK 13 AUDIO
    TITLE "4:cjc137_2576"
    INDEX 01 00:10:04
  TRACK 14 AUDIO
    TITLE "0:"
    INDEX 01 00:11:17
  TRACK 15 AUDIO
    TITLE "6:cjc137_2577"
    INDEX 01 00:11:23
  TRACK 16 AUDIO
    TITLE "0:"
    INDEX 01 00:12:36
  TRACK 17 AUDIO
    TITLE "5:cjc137_2578"
    INDEX 01 00:12:42
  TRACK 18 AUDIO
    TITLE "0:"
    INDEX 01 00:13:55
  TRACK 19 AUDIO
    TITLE "4:cjc137_2579"
    INDEX 01 00:14:58
  TRACK 20 AUDIO
    TITLE "0:"
    INDEX 01 00:15:58
  TRACK 21 AUDIO
    TITLE "6:cjc137_2580"
    INDEX 01 00:15:68
  TRACK 22 AUDIO
    TITLE "0:"
    INDEX 01 00:16:67
  TRACK 23 AUDIO
    TITLE "5:cjc137_2581"
    INDEX 01 00:16:73
  TRACK 24 AUDIO
    TITLE "0:"
    INDEX 01 00:17:72
  TRACK 25 AUDIO
    TITLE "4:cjc137_2582"
    INDEX 01 00:19:09
  TRACK 26 AUDIO
    TITLE "0:"
    INDEX 01 00:20:06
  TRACK 27 AUDIO
    TITLE "6:cjc137_2583"
    INDEX 01 00:20:12
  TRACK 28 AUDIO
    TITLE "0:"
    INDEX 01 00:21:09
  TRACK 29 AUDIO
    TITLE "5:cjc137_2584"
    INDEX 01 00:21:17
  TRACK 30 AUDIO
    TITLE "0:"
    INDEX 01 00:22:15
  TRACK 31 AUDIO
    TITLE "4:cjc137_2585"
    INDEX 01 00:23:22
  TRACK 32 AUDIO
    TITLE "0:"
    INDEX 01 00:24:55
  TRACK 33 AUDIO
    TITLE "6:cjc137_2586"
    INDEX 01 00:24:61
  TRACK 34 AUDIO
    TITLE "0:"
    INDEX 01 00:26:28
  TRACK 35 AUDIO
    TITLE "5:cjc137_2587"
    INDEX 01 00:26:34
  TRACK 36 AUDIO
    TITLE "0:"
    INDEX 01 00:27:67
  TRACK 37 AUDIO
    TITLE "4:cjc137_2588"
    INDEX 01 00:28:72
  TRACK 38 AUDIO
    TITLE "0:"
    INDEX 01 00:30:16
  TRACK 39 AUDIO
    TITLE "6:cjc137_2589"
    INDEX 01 00:30:22
  TRACK 40 AUDIO
    TITLE "0:"
    INDEX 01 00:32:05
  TRACK 41 AUDIO
    TITLE "5:cjc137_2590"
    INDEX 01 00:32:11
  TRACK 42 AUDIO
    TITLE "0:"
    INDEX 01 00:33:30
  TRACK 43 AUDIO
    TITLE "4:cjc137_2591"
    INDEX 01 00:34:38
  TRACK 44 AUDIO
    TITLE "0:"
    INDEX 01 00:35:57
  TRACK 45 AUDIO
    TITLE "6:cjc137_2592"
    INDEX 01 00:35:64
  TRACK 46 AUDIO
    TITLE "0:"
    INDEX 01 00:36:72
  TRACK 47 AUDIO
    TITLE "5:cjc137_2593"
    INDEX 01 00:37:07
  TRACK 48 AUDIO
    TITLE "0:"
    INDEX 01 00:38:24
  TRACK 49 AUDIO
    TITLE "4:cjc137_2594"
    INDEX 01 00:39:35
  TRACK 50 AUDIO
    TITLE "0:"
    INDEX 01 00:40:40
  TRACK 51 AUDIO
    TITLE "6:cjc137_2595"
    INDEX 01 00:40:48
  TRACK 52 AUDIO
    TITLE "0:"
    INDEX 01 00:41:65
  TRACK 53 AUDIO
    TITLE "5:cjc137_2596"
    INDEX 01 00:41:73
  TRACK 54 AUDIO
    TITLE "0:"
    INDEX 01 00:43:03
  TRACK 55 AUDIO
    TITLE "4:cjc137_2597"
    INDEX 01 00:44:12
  TRACK 56 AUDIO
    TITLE "0:"
    INDEX 01 00:45:16
  TRACK 57 AUDIO
    TITLE "6:cjc137_2598"
    INDEX 01 00:45:24
  TRACK 58 AUDIO
    TITLE "0:"
    INDEX 01 00:46:41
  TRACK 59 AUDIO
    TITLE "5:cjc137_2599"
    INDEX 01 00:46:53
  TRACK 60 AUDIO
    TITLE "0:"
    INDEX 01 00:47:56
  TRACK 61 AUDIO
    TITLE "4:cjc137_2600"
    INDEX 01 00:48:65
  TRACK 62 AUDIO
    TITLE "0:"
    INDEX 01 00:50:03
  TRACK 63 AUDIO
    TITLE "6:cjc137_2601"
    INDEX 01 00:50:09
  TRACK 64 AUDIO
    TITLE "0:"
    INDEX 01 00:51:22
  TRACK 65 AUDIO
    TITLE "5:cjc137_2602"
    INDEX 01 00:51:28
  TRACK 66 AUDIO
    TITLE "0:"
    INDEX 01 00:52:41
  TRACK 67 AUDIO
    TITLE "4:cjc137_2603"
    INDEX 01 00:53:49
  TRACK 68 AUDIO
    TITLE "0:"
    INDEX 01 00:54:68
  TRACK 69 AUDIO
    TITLE "6:cjc137_2604"
    INDEX 01 00:55:03
  TRACK 70 AUDIO
    TITLE "0:"
    INDEX 01 00:56:04
  TRACK 71 AUDIO
    TITLE "5:cjc137_2605"
    INDEX 01 00:56:12
  TRACK 72 AUDIO
    TITLE "0:"
    INDEX 01 00:57:31
  TRACK 73 AUDIO
    TITLE "4:cjc137_2606"
    INDEX 01 00:58:42
  TRACK 74 AUDIO
    TITLE "0:"
    INDEX 01 00:59:65
  TRACK 75 AUDIO
    TITLE "6:cjc137_2607"
    INDEX 01 00:59:73
  TRACK 76 AUDIO
    TITLE "0:"
    INDEX 01 01:01:19
  TRACK 77 AUDIO
    TITLE "5:cjc137_2608"
    INDEX 01 01:01:29
  TRACK 78 AUDIO
    TITLE "0:"
    INDEX 01 01:02:50
  TRACK 79 AUDIO
    TITLE "4:cjc137_2609"
    INDEX 01 01:03:59
  TRACK 80 AUDIO
    TITLE "0:"
    INDEX 01 01:05:11
  TRACK 81 AUDIO
    TITLE "6:cjc137_2610"
    INDEX 01 01:05:21
  TRACK 82 AUDIO
    TITLE "0:"
    INDEX 01 01:06:49
  TRACK 83 AUDIO
    TITLE "5:cjc137_2611"
    INDEX 01 01:06:55
  TRACK 84 AUDIO
    TITLE "0:"
    INDEX 01 01:08:11
